<svg width="318" height="211" viewBox="0 0 318 211" fill="none" xmlns="http://www.w3.org/2000/svg">
<path d="M288 58.1142C277 56.6142 250.5 91.1142 185 97.6142C185 97.6142 170 44.1142 162 7.6142C161.673 6.12228 155.5 2.61417 152.5 0.614197C149.5 -1.38578 152.5 0.61422 120 20.1142C138 55.6142 144 84.6142 142.5 94.6142C124 87.6142 75.6987 83.8848 30.5 85.499C2.5 86.499 42 101.614 61.5 105.999C56.5 108.614 19 110.114 0 115.114C9 123.114 29 130.614 75 128.614C29 143.114 20.5 211.614 28.5 210.614C38.5 205.114 39 197.114 50.5 190.614C75.5 174.114 126.5 174.114 149.5 160.614C177 183.114 201 208.614 260.5 210.114C223.5 180.614 211.5 160.114 206 146.114C246.5 139.614 270.221 152.298 314.5 186.614C324 172.114 311.5 124.114 260.5 109.114C282.5 111.614 300.5 68.1142 288 58.1142Z" fill="#437800"/>
</svg>
